<svg xmlns="http://www.w3.org/2000/svg" width="152" height="16" viewBox="0 0 152 16" fill="none">
  <path d="M1.97403 0V16H0V0H1.97403ZM5.92208 0V16H3.94805V0H5.92208ZM9.87013 0V16H7.8961V0H9.87013ZM13.8182 0V16H11.8442V0H13.8182ZM17.7662 0V16H15.7922V0H17.7662ZM21.7143 0V16H19.7403V0H21.7143ZM25.6623 0V16H23.6883V0H25.6623ZM29.6104 0V16H27.6364V0H29.6104ZM33.5584 0V16H31.5844V0H33.5584ZM37.5065 0V16H35.5325V0H37.5065ZM41.4545 0V16H39.4805V0H41.4545ZM45.4026 0V16H43.4286V0H45.4026ZM49.3507 0V16H47.3766V0H49.3507ZM53.2987 0V16H51.3247V0H53.2987ZM57.2468 0V16H55.2727V0H57.2468ZM61.1948 0V16H59.2208V0H61.1948ZM65.1429 0V16H63.1688V0H65.1429ZM69.0909 0V16H67.1169V0H69.0909ZM73.039 0V16H71.0649V0H73.039ZM76.987 0V16H75.013V0H76.987ZM80.9351 0V16H78.961V0H80.9351ZM84.8831 0V16H82.9091V0H84.8831ZM88.8312 0V16H86.8571V0H88.8312ZM92.7792 0V16H90.8052V0H92.7792ZM96.7273 0V16H94.7533V0H96.7273ZM100.675 0V16H98.7013V0H100.675ZM104.623 0V16H102.649V0H104.623ZM108.571 0V16H106.597V0H108.571ZM112.519 0V16H110.545V0H112.519ZM116.468 0V16H114.494V0H116.468ZM120.416 0V16H118.442V0H120.416ZM124.364 0V16H122.39V0H124.364ZM128.312 0V16H126.338V0H128.312ZM132.26 0V16H130.286V0H132.26ZM136.208 0V16H134.234V0H136.208ZM140.156 0V16H138.182V0H140.156ZM144.104 0V16H142.13V0H144.104ZM148.052 0V16H146.078V0H148.052ZM152 0V16H150.026V0H152Z" fill="#977B4F"/>
</svg>